<svg width="195" height="27" viewBox="0 0 195 27" fill="none" xmlns="http://www.w3.org/2000/svg">
<path d="M15.3779 25.8969V15.78L10.4767 25.8969H7.66646L2.78784 15.78V25.8969H0V10.4292H3.32739L9.10531 22.7945L14.9057 10.4292H18.1656V25.8969H15.3778H15.3779ZM36.3763 25.8969L34.4428 22.2998H25.1127L23.1793 25.8969H19.717L28.1928 10.4292H31.3627L39.8386 25.8969H36.3763V25.8969ZM29.7891 13.4643L26.2818 19.8717H33.2962L29.789 13.4643H29.7891ZM55.2164 25.8969L44.3126 14.4985V25.8969H41.4123V10.4292H44.6723L55.2838 21.6253V10.4292H58.2066V25.8969H55.2164V25.8969ZM76.3947 25.8969L74.4613 22.2998H65.1311L63.1977 25.8969H59.7354L68.2112 10.4292H71.3812L79.857 25.8969H76.3947V25.8969ZM69.8075 13.4643L66.3002 19.8717H73.3147L69.8074 13.4643H69.8075ZM94.9876 25.8969L94.8976 24.0084C94.8526 24.2332 94.7515 24.4581 94.5941 24.6829C94.4367 24.9077 94.2344 25.1101 93.9871 25.2899C93.7397 25.4698 93.4438 25.6159 93.099 25.7284C92.7543 25.8407 92.3647 25.8969 91.9299 25.8969H85.3652C84.4059 25.8969 83.6154 25.8182 82.9934 25.6609C82.3714 25.5035 81.8805 25.23 81.5207 24.8403C81.161 24.4505 80.91 23.9372 80.7676 23.3003C80.6252 22.6632 80.554 21.8576 80.554 20.8834V15.4427C80.554 14.5135 80.6252 13.7303 80.7676 13.0934C80.91 12.4563 81.161 11.9393 81.5207 11.5421C81.8804 11.1449 82.3714 10.8601 82.9934 10.6878C83.6154 10.5154 84.4059 10.4292 85.3652 10.4292H93.2115C93.781 10.4292 94.2756 10.5079 94.6953 10.6653C95.115 10.8226 95.4747 11.0175 95.7745 11.2498C96.0743 11.4821 96.3141 11.7295 96.4939 11.9916C96.6737 12.254 96.8086 12.4901 96.8986 12.6999L94.9876 14.6782C94.8377 14.3784 94.6203 14.1049 94.3356 13.8577C94.0507 13.6103 93.6087 13.4867 93.0091 13.4867H85.3877C84.6832 13.4867 84.2036 13.6216 83.9488 13.8914C83.694 14.1612 83.5667 14.6782 83.5667 15.4426V20.4336C83.5667 20.9732 83.5928 21.4003 83.6454 21.7152C83.6978 22.0299 83.7952 22.2735 83.9376 22.4459C84.08 22.6182 84.2674 22.7306 84.4997 22.783C84.732 22.8355 85.0279 22.8617 85.3878 22.8617H92.4247C93.279 22.8617 93.8711 22.7381 94.2007 22.4908C94.5305 22.2435 94.6954 21.88 94.6954 21.4003V19.422H88.895V16.9039H97.5507V25.8968H94.9877L94.9876 25.8969ZM100.158 25.8969V10.4292H115.019V13.4868H103.194V16.9041H114.682V19.3997H103.194V22.8619H115.019V25.897H100.158V25.8969ZM122.191 25.8969C121.262 25.8969 120.49 25.8145 119.875 25.6497C119.261 25.4847 118.77 25.2112 118.403 24.829C118.035 24.4468 117.773 23.9334 117.616 23.289C117.458 22.6445 117.38 21.8426 117.38 20.8834V15.4427C117.38 14.4835 117.458 13.6816 117.616 13.0372C117.773 12.3926 118.035 11.8755 118.403 11.4858C118.77 11.0962 119.261 10.8226 119.875 10.6653C120.49 10.5079 121.262 10.4292 122.191 10.4292H130.869C131.439 10.4292 131.937 10.5079 132.364 10.6653C132.791 10.8226 133.155 11.0175 133.455 11.2498C133.755 11.4821 133.994 11.7295 134.174 11.9916C134.354 12.254 134.489 12.4901 134.579 12.6999L132.645 14.6782C132.511 14.3784 132.293 14.1049 131.993 13.8577C131.694 13.6103 131.251 13.4867 130.667 13.4867H122.214C121.539 13.4867 121.067 13.6291 120.797 13.9139C120.527 14.1987 120.393 14.7083 120.393 15.4426V20.9059C120.393 21.2355 120.415 21.5204 120.46 21.7602C120.505 22 120.591 22.2023 120.719 22.3671C120.846 22.5321 121.03 22.6557 121.269 22.7381C121.509 22.8206 121.824 22.8617 122.214 22.8617H130.779C131.379 22.8617 131.821 22.7381 132.106 22.4908C132.391 22.2435 132.6 21.97 132.735 21.6702L134.669 23.6261C134.579 23.836 134.444 24.0721 134.264 24.3342C134.084 24.5966 133.844 24.8439 133.545 25.0762C133.245 25.3085 132.881 25.5033 132.454 25.6607C132.027 25.818 131.529 25.8968 130.959 25.8968H122.191V25.8969ZM151.643 25.8969L149.709 22.2998H140.379L138.446 25.8969H134.983L143.459 10.4292H146.629L155.105 25.8969H151.643V25.8969ZM145.056 13.4643L141.548 19.8717H148.563L145.055 13.4643H145.056ZM156.701 25.8969V10.4292H159.736V22.8394H171.382V25.8969H156.701ZM173.158 25.8969V10.4292H176.193V22.8394H187.839V25.8969H173.158Z" fill="#C54031"/>
<path d="M45.1557 6.25697C45.6033 6.53138 45.984 6.72171 46.2978 6.83316C46.6099 6.9429 46.9152 6.99782 47.2135 6.99782C47.5137 6.99782 47.7555 6.93083 47.9389 6.79882C48.1207 6.6668 48.2116 6.49695 48.2116 6.28953C48.2116 5.99285 47.8876 5.65673 47.2376 5.28635C47.133 5.22625 47.0523 5.1783 46.9957 5.14575L46.5035 4.86786C46.025 4.59693 45.67 4.28997 45.4403 3.94875C45.2088 3.60752 45.0938 3.21989 45.0938 2.78771C45.0938 2.20124 45.3151 1.72102 45.7576 1.34546C46.1984 0.969892 46.7694 0.782959 47.4691 0.782959C47.7281 0.782959 48.0076 0.813903 48.3077 0.873918C48.6096 0.934019 48.9439 1.02829 49.3126 1.15521V2.86158C48.9611 2.64209 48.6283 2.47233 48.3128 2.35229C47.9973 2.23226 47.7298 2.17225 47.5085 2.17225C47.2633 2.17225 47.0712 2.22546 46.9306 2.33002C46.79 2.43458 46.7197 2.57867 46.7197 2.75872C46.7197 2.88564 46.7609 3.00397 46.8448 3.11371C46.9289 3.22516 47.054 3.32462 47.2221 3.41558L48.0762 3.8872C48.7913 4.28334 49.2715 4.64862 49.5184 4.98313C49.7654 5.31916 49.8888 5.7153 49.8888 6.17494C49.8888 6.88484 49.6471 7.45941 49.1634 7.8967C48.6781 8.33398 48.0368 8.55177 47.236 8.55177C46.965 8.55177 46.6701 8.52261 46.351 8.46599C46.0338 8.40938 45.6822 8.32029 45.3014 8.20017L45.1557 6.25723V6.25697ZM39.5051 3.21113V5.02146C39.5051 5.662 39.6238 6.14119 39.8586 6.45963C40.0936 6.77824 40.4495 6.93789 40.9278 6.93789C41.3872 6.93789 41.7382 6.78853 41.9799 6.49211C42.2215 6.19585 42.291 5.76444 42.2856 5.19743L42.2669 3.20535L43.9679 3.20331L44.0264 5.0377C44.0597 6.08407 43.9211 7.16189 43.2386 7.77122C42.516 8.41652 41.8023 8.52618 40.8476 8.52618C39.8826 8.52618 39.1323 8.23622 38.5964 7.6551C38.0615 7.07484 37.7695 6.21489 37.7695 5.16445V3.21487L39.5051 3.21105V3.21113ZM0.000170182 8.31485L1.51272 0.793246H1.63785L4.38684 5.53661L6.97976 0.793246H7.11008L8.63292 8.31485H6.97968L6.36226 4.98789L4.40733 8.58237H4.29079L2.19168 4.93816L1.55199 8.31476H0L0.000170182 8.31485ZM9.16643 8.31485L12.8827 0.803531H12.9925L16.6264 8.31485H14.8069L14.3455 7.25505H11.3891L10.9174 8.31485H9.16643ZM11.8931 5.99965H13.807L12.8622 3.7188L11.8932 5.99965H11.8931ZM17.1254 8.31485L19.7423 4.5472L17.1614 1.02991H19.2844L20.7867 3.11014L22.1981 1.02991H24.0914L21.7454 4.39623L24.6162 8.31485H22.4761L20.7063 5.84366L19.0291 8.31485H17.1255H17.1254ZM25.3072 8.31485V1.02991H27.0461V8.31485H25.3072V8.31485ZM28.1471 8.31485L29.6596 0.793246H29.7848L32.5338 5.53661L35.1267 0.793246H35.257L36.7798 8.31485H35.1266L34.5092 4.98789L32.5543 8.58237H32.4377L30.3386 4.93816L29.6989 8.31476H28.147L28.1471 8.31485Z" fill="#003087"/>
<path fillRule="evenodd" clipRule="evenodd" d="M37.7666 1.03906H39.4878V2.72579H37.7666V1.03906Z" fill="#C54031"/>
<path fillRule="evenodd" clipRule="evenodd" d="M42.251 1.03906H43.972V2.72579H42.251V1.03906Z" fill="#C54031"/>
<path d="M190.623 7.08301C190.623 7.13435 190.621 7.17754 190.616 7.21426C190.612 7.25031 190.606 7.27904 190.597 7.30063C190.588 7.32316 190.577 7.33939 190.563 7.34926C190.551 7.36005 190.536 7.36541 190.52 7.36541H189.668V10.1146C189.668 10.1317 189.662 10.1478 189.651 10.1623C189.639 10.1757 189.62 10.1874 189.594 10.1964C189.568 10.2045 189.532 10.2117 189.487 10.2171C189.442 10.2225 189.386 10.2253 189.32 10.2253C189.253 10.2253 189.197 10.2225 189.152 10.2171C189.108 10.2117 189.071 10.2045 189.045 10.1964C189.019 10.1874 189 10.1757 188.989 10.1623C188.977 10.1478 188.972 10.1317 188.972 10.1146V7.36541H188.119C188.102 7.36541 188.087 7.36005 188.074 7.34926C188.063 7.33939 188.052 7.32316 188.043 7.30063C188.035 7.27904 188.027 7.25031 188.023 7.21426C188.018 7.17745 188.017 7.13427 188.017 7.08301C188.017 7.03081 188.018 6.98585 188.023 6.94904C188.027 6.91214 188.035 6.88248 188.043 6.86088C188.052 6.83844 188.063 6.82314 188.074 6.81319C188.087 6.80333 188.102 6.79883 188.119 6.79883H190.52C190.536 6.79883 190.55 6.80333 190.563 6.81319C190.577 6.82314 190.588 6.83844 190.597 6.86088C190.606 6.88248 190.612 6.91214 190.616 6.94904C190.621 6.98593 190.623 7.0309 190.623 7.08301V7.08301ZM195 10.1146C195 10.1317 194.995 10.1478 194.985 10.1623C194.975 10.1757 194.957 10.1874 194.932 10.1964C194.907 10.2045 194.873 10.2117 194.831 10.2171C194.788 10.2225 194.734 10.2253 194.67 10.2253C194.606 10.2253 194.553 10.2225 194.51 10.2171C194.468 10.2117 194.435 10.2045 194.41 10.1964C194.385 10.1874 194.367 10.1757 194.358 10.1623C194.347 10.1478 194.341 10.1317 194.341 10.1146V7.33846H194.336L193.351 10.1119C193.344 10.1344 193.333 10.1532 193.317 10.1685C193.301 10.1839 193.28 10.1955 193.252 10.2045C193.225 10.2126 193.19 10.2189 193.149 10.2216C193.107 10.2243 193.055 10.2253 192.996 10.2253C192.936 10.2253 192.885 10.2234 192.843 10.2189C192.801 10.2145 192.766 10.2072 192.739 10.1973C192.712 10.1874 192.69 10.1757 192.674 10.1623C192.659 10.1478 192.648 10.1307 192.643 10.1119L191.692 7.33846H191.687V10.1146C191.687 10.1317 191.682 10.1478 191.672 10.1623C191.662 10.1757 191.644 10.1874 191.618 10.1964C191.591 10.2045 191.557 10.2117 191.516 10.2171C191.474 10.2225 191.421 10.2253 191.357 10.2253C191.293 10.2253 191.24 10.2225 191.198 10.2171C191.155 10.2117 191.121 10.2045 191.096 10.1964C191.071 10.1874 191.053 10.1757 191.043 10.1623C191.033 10.1478 191.029 10.1317 191.029 10.1146V7.07587C191.029 6.98585 191.052 6.91758 191.1 6.86989C191.147 6.82221 191.21 6.79883 191.29 6.79883H191.743C191.824 6.79883 191.895 6.80512 191.952 6.81863C192.011 6.83215 192.061 6.85374 192.103 6.88426C192.145 6.91486 192.181 6.95533 192.208 7.00565C192.236 7.05606 192.261 7.11803 192.282 7.19182L193.017 9.22334H193.028L193.788 7.19633C193.811 7.12254 193.836 7.06057 193.863 7.00922C193.891 6.9589 193.922 6.9175 193.958 6.88613C193.994 6.85459 194.038 6.83215 194.086 6.81863C194.136 6.80512 194.193 6.79883 194.258 6.79883H194.726C194.773 6.79883 194.814 6.80512 194.848 6.8177C194.882 6.82943 194.911 6.84737 194.932 6.87168C194.955 6.89506 194.971 6.92387 194.983 6.95805C194.994 6.99222 195 7.03184 195 7.07587V10.1146H195Z" fill="black"/>
</svg>
